<svg xmlns="http://www.w3.org/2000/svg" viewBox="0 0 200 300" aria-labelledby="title desc" role="img">
  <title id="title">Bacon Money Sign</title>
  <desc id="desc">A money sign where the S is replaced with a bacon strip</desc>
  <defs>
    <linearGradient id="baconGradient" x1="0" y1="0" x2="1" y2="1">
      <stop offset="0%" stop-color="#FF6B35"/>
      <stop offset="30%" stop-color="#FF9066"/>
      <stop offset="60%" stop-color="#FF6B35"/>
      <stop offset="100%" stop-color="#D2691E"/>
    </linearGradient>
    <linearGradient id="goldGradient" x1="0" y1="0" x2="1" y2="1">
      <stop offset="0%" stop-color="#FFD700"/>
      <stop offset="50%" stop-color="#FFA500"/>
      <stop offset="100%" stop-color="#B8860B"/>
    </linearGradient>
    <filter id="glow" x="-20%" y="-20%" width="140%" height="140%">
      <feGaussianBlur stdDeviation="3" result="coloredBlur"/>
      <feMerge> 
        <feMergeNode in="coloredBlur"/>
        <feMergeNode in="SourceGraphic"/>
      </feMerge>
    </filter>
  </defs>
  
  <!-- Vertical bars of dollar sign -->
  <rect x="90" y="20" width="20" height="260" fill="url(#goldGradient)" filter="url(#glow)"/>
  
  <!-- Bacon strip replacing the S -->
  <g transform="translate(50, 80)">
    <!-- Main bacon strip -->
    <path d="M20 20 Q40 10, 60 20 Q80 30, 100 20 Q120 10, 140 20 L140 40 Q120 50, 100 40 Q80 30, 60 40 Q40 50, 20 40 Z" 
          fill="url(#baconGradient)" 
          stroke="#B8860B" 
          stroke-width="2"
          filter="url(#glow)"/>
    
    <!-- Fat marbling lines -->
    <path d="M30 25 Q50 20, 70 25 Q90 30, 110 25 Q130 20, 140 25" 
          fill="none" 
          stroke="#FFE4E1" 
          stroke-width="3" 
          stroke-linecap="round"/>
    <path d="M20 32 Q40 37, 60 32 Q80 27, 100 32 Q120 37, 140 32" 
          fill="none" 
          stroke="#FFE4E1" 
          stroke-width="3" 
          stroke-linecap="round"/>
    
    <!-- Second bacon curve -->
    <path d="M20 80 Q40 70, 60 80 Q80 90, 100 80 Q120 70, 140 80 L140 100 Q120 110, 100 100 Q80 90, 60 100 Q40 110, 20 100 Z" 
          fill="url(#baconGradient)" 
          stroke="#B8860B" 
          stroke-width="2"
          filter="url(#glow)"/>
    
    <!-- Fat marbling lines for second curve -->
    <path d="M30 85 Q50 80, 70 85 Q90 90, 110 85 Q130 80, 140 85" 
          fill="none" 
          stroke="#FFE4E1" 
          stroke-width="3" 
          stroke-linecap="round"/>
    <path d="M20 92 Q40 97, 60 92 Q80 87, 100 92 Q120 97, 140 92" 
          fill="none" 
          stroke="#FFE4E1" 
          stroke-width="3" 
          stroke-linecap="round"/>
  </g>
  
  <!-- Money sign shadow effect -->
  <ellipse cx="100" cy="280" rx="80" ry="15" fill="rgba(0,0,0,0.2)"/>
</svg>