<svg xmlns="http://www.w3.org/2000/svg" viewBox="0 0 128 160" aria-labelledby="title desc" role="img">
  <title id="title">University of Bacon Crest</title>
  <desc id="desc">A classic academic shield with golden trim and a stylized bacon motif</desc>
  <defs>
    <linearGradient id="gold" x1="0" y1="0" x2="1" y2="1">
      <stop offset="0%" stop-color="#FFD700"/>
      <stop offset="50%" stop-color="#FFA500"/>
      <stop offset="100%" stop-color="#B8860B"/>
    </linearGradient>
    <linearGradient id="navy" x1="0" y1="0" x2="0" y2="1">
      <stop offset="0%" stop-color="#1e3a8a"/>
      <stop offset="100%" stop-color="#122050"/>
    </linearGradient>
    <filter id="emboss" x="-20%" y="-20%" width="140%" height="140%">
      <feOffset in="SourceAlpha" dx="0" dy="1" result="off"/>
      <feGaussianBlur in="off" stdDeviation="1" result="blur"/>
      <feComposite in="blur" in2="SourceAlpha" operator="out" result="shadow"/>
      <feColorMatrix in="shadow" type="matrix" values="0 0 0 0 0  0 0 0 0 0  0 0 0 0 0  0 0 0 .35 0"/>
      <feMerge>
        <feMergeNode/>
        <feMergeNode in="SourceGraphic"/>
      </feMerge>
    </filter>
  </defs>

  <!-- Shield background -->
  <path d="M64 6 C95 6 118 14 118 14 L118 76 C118 105 96 133 64 150 C32 133 10 105 10 76 L10 14 C10 14 33 6 64 6 Z" fill="url(#navy)" stroke="url(#gold)" stroke-width="6" filter="url(#emboss)"/>

  <!-- Cross band -->
  <path d="M16 60 H112" stroke="url(#gold)" stroke-width="6" opacity="0.75"/>

  <!-- Bacon motif -->
  <g transform="translate(32,70)">
    <path d="M0 0 C8 -6 16 -6 24 0 C32 6 40 6 48 0" fill="none" stroke="#FF6B35" stroke-width="6" stroke-linecap="round"/>
    <path d="M0 12 C8 6 16 6 24 12 C32 18 40 18 48 12" fill="none" stroke="#FF9066" stroke-width="6" stroke-linecap="round"/>
  </g>

  <!-- Ribbon tip -->
  <polygon points="64,150 52,138 76,138" fill="url(#gold)" opacity="0.9"/>
</svg>
